<svg width="937" height="881" viewBox="0 0 937 881" fill="none" xmlns="http://www.w3.org/2000/svg">
<path fill-rule="evenodd" clip-rule="evenodd" d="M307 154C307 238.5 238.5 307 154 307C69.5004 307 1 238.5 1 154C1 69.5004 69.5004 1 154 1C238.5 1 307 69.5004 307 154ZM308 154C308 239.052 239.052 308 154 308C68.9482 308 0 239.052 0 154C0 68.9482 68.9482 0 154 0C239.052 0 308 68.9482 308 154ZM461 447.5C461 531.72 392.503 600 308 600C223.497 600 155 531.72 155 447.5C155 363.28 223.497 295 308 295C392.503 295 461 363.28 461 447.5ZM462 447.5C462 532.276 393.052 601 308 601C222.948 601 154 532.276 154 447.5C154 362.724 222.948 294 308 294C393.052 294 462 362.724 462 447.5ZM461.5 880C545.72 880 614 811.503 614 727C614 642.497 545.72 574 461.5 574C377.28 574 309 642.497 309 727C309 811.503 377.28 880 461.5 880ZM461.5 881C546.276 881 615 812.052 615 727C615 641.948 546.276 573 461.5 573C376.724 573 308 641.948 308 727C308 812.052 376.724 881 461.5 881ZM625 168C625 252.5 556.5 321 472 321C387.5 321 319 252.5 319 168C319 83.5004 387.5 15 472 15C556.5 15 625 83.5004 625 168ZM626 168C626 253.052 557.052 322 472 322C386.948 322 318 253.052 318 168C318 82.9482 386.948 14 472 14C557.052 14 626 82.9482 626 168ZM626 615C710.5 615 779 546.5 779 462C779 377.5 710.5 309 626 309C541.5 309 473 377.5 473 462C473 546.5 541.5 615 626 615ZM626 616C711.052 616 780 547.052 780 462C780 376.948 711.052 308 626 308C540.948 308 472 376.948 472 462C472 547.052 540.948 616 626 616ZM936 168.5C936 252.72 867.503 321 783 321C698.497 321 630 252.72 630 168.5C630 84.2794 698.497 15.9998 783 15.9998C867.503 15.9998 936 84.2794 936 168.5ZM937 168.5C937 253.275 868.052 322 783 322C697.948 322 629 253.275 629 168.5C629 83.724 697.948 14.9998 783 14.9998C868.052 14.9998 937 83.724 937 168.5Z" fill="#396B63"/>
</svg>
